HIERARCHY
ROOT Hips
{
	OFFSET -14.64140 90.27770 -84.91600
	CHANNELS 6 Xposition Yposition Zposition Zrotation Xrotation Yrotation
	JOINT Spine
	{
		OFFSET 0.00000 13.20850 -1.60436
		CHANNELS 3 Zrotation Xrotation Yrotation
		JOINT Spine1
		{
			OFFSET 0.00000 8.61716 0.00000
			CHANNELS 3 Zrotation Xrotation Yrotation
			JOINT Spine2
			{
				OFFSET 0.00000 8.61717 0.00000
				CHANNELS 3 Zrotation Xrotation Yrotation
				JOINT Spine3
				{
					OFFSET 0.00000 8.61717 0.00000
					CHANNELS 3 Zrotation Xrotation Yrotation
					JOINT Neck
					{
						OFFSET 0.00000 11.07920 1.10792
						CHANNELS 3 Zrotation Xrotation Yrotation
						JOINT Neck1
						{
							OFFSET 0.00000 7.08032 0.00000
							CHANNELS 3 Zrotation Xrotation Yrotation
							JOINT Head
							{
								OFFSET 0.00000 7.08031 0.00000
								CHANNELS 3 Zrotation Xrotation Yrotation
								End site
								{
									OFFSET 0.00000 0.00000 0.00000
								}
							}
						}
					}
					JOINT RightShoulder
					{
						OFFSET -0.01000 7.91373 5.19711
						CHANNELS 3 Zrotation Xrotation Yrotation
						JOINT RightArm
						{
							OFFSET -18.41580 0.00000 0.00000
							CHANNELS 3 Zrotation Xrotation Yrotation
							JOINT RightForeArm
							{
								OFFSET -29.11090 0.00000 0.00000
								CHANNELS 3 Zrotation Xrotation Yrotation
								JOINT RightHand
								{
									OFFSET -24.65040 0.00000 0.00000
									CHANNELS 3 Zrotation Xrotation Yrotation
									JOINT RightHandThumb1
									{
										OFFSET -5.35114 -0.85590 3.97906
										CHANNELS 3 Zrotation Xrotation Yrotation
										JOINT RightHandThumb2
										{
											OFFSET -4.52789 0.00000 0.00000
											CHANNELS 3 Zrotation Xrotation Yrotation
											JOINT RightHandThumb3
											{
												OFFSET -2.46976 0.00000 0.00000
												CHANNELS 3 Zrotation Xrotation Yrotation
												End site
												{
													OFFSET 0.00000 0.00000 0.00000
												}
											}
										}
									}
									JOINT RightHandIndex1
									{
										OFFSET -14.26970 0.00000 2.88139
										CHANNELS 3 Zrotation Xrotation Yrotation
										JOINT RightHandIndex2
										{
											OFFSET -5.48836 0.00000 0.00000
											CHANNELS 3 Zrotation Xrotation Yrotation
											JOINT RightHandIndex3
											{
												OFFSET -3.01859 0.00000 0.00000
												CHANNELS 3 Zrotation Xrotation Yrotation
												End site
												{
													OFFSET 0.00000 0.00000 0.00000
												}
											}
										}
									}
									JOINT RightHandMiddle1
									{
										OFFSET -14.26970 0.00000 -0.09147
										CHANNELS 3 Zrotation Xrotation Yrotation
										JOINT RightHandMiddle2
										{
											OFFSET -6.17441 0.00000 0.00000
											CHANNELS 3 Zrotation Xrotation Yrotation
											JOINT RightHandMiddle3
											{
												OFFSET -3.56743 0.00000 0.00000
												CHANNELS 3 Zrotation Xrotation Yrotation
												End site
												{
													OFFSET 0.00000 0.00000 0.00000
												}
											}
										}
									}
									JOINT RightHandRing1
									{
										OFFSET -12.69180 0.00000 -3.06433
										CHANNELS 3 Zrotation Xrotation Yrotation
										JOINT RightHandRing2
										{
											OFFSET -5.62556 0.00000 0.00000
											CHANNELS 3 Zrotation Xrotation Yrotation
											JOINT RightHandRing3
											{
												OFFSET -3.56744 0.00000 0.00000
												CHANNELS 3 Zrotation Xrotation Yrotation
												End site
												{
													OFFSET 0.00000 0.00000 0.00000
												}
											}
										}
									}
									JOINT RightHandPinky1
									{
										OFFSET -11.11390 0.00000 -6.03719
										CHANNELS 3 Zrotation Xrotation Yrotation
										JOINT RightHandPinky2
										{
											OFFSET -4.52789 0.00000 0.00000
											CHANNELS 3 Zrotation Xrotation Yrotation
											JOINT RightHandPinky3
											{
												OFFSET -2.46976 0.00000 0.00000
												CHANNELS 3 Zrotation Xrotation Yrotation
												End site
												{
													OFFSET 0.00000 0.00000 0.00000
												}
											}
										}
									}
								}
							}
						}
					}
					JOINT LeftShoulder
					{
						OFFSET 0.01000 7.91373 5.19711
						CHANNELS 3 Zrotation Xrotation Yrotation
						JOINT LeftArm
						{
							OFFSET 18.41580 0.00000 0.00000
							CHANNELS 3 Zrotation Xrotation Yrotation
							JOINT LeftForeArm
							{
								OFFSET 29.11090 0.00000 0.00000
								CHANNELS 3 Zrotation Xrotation Yrotation
								JOINT LeftHand
								{
									OFFSET 24.65040 0.00000 0.00000
									CHANNELS 3 Zrotation Xrotation Yrotation
									JOINT LeftHandThumb1
									{
										OFFSET 5.35114 -0.85590 3.97906
										CHANNELS 3 Zrotation Xrotation Yrotation
										JOINT LeftHandThumb2
										{
											OFFSET 4.52789 0.00000 0.00000
											CHANNELS 3 Zrotation Xrotation Yrotation
											JOINT LeftHandThumb3
											{
												OFFSET 2.46977 0.00000 0.00000
												CHANNELS 3 Zrotation Xrotation Yrotation
												End site
												{
													OFFSET 0.00000 0.00000 0.00000
												}
											}
										}
									}
									JOINT LeftHandIndex1
									{
										OFFSET 14.26970 0.00000 2.88139
										CHANNELS 3 Zrotation Xrotation Yrotation
										JOINT LeftHandIndex2
										{
											OFFSET 5.48836 0.00000 0.00000
											CHANNELS 3 Zrotation Xrotation Yrotation
											JOINT LeftHandIndex3
											{
												OFFSET 3.01859 0.00000 0.00000
												CHANNELS 3 Zrotation Xrotation Yrotation
												End site
												{
													OFFSET 0.00000 0.00000 0.00000
												}
											}
										}
									}
									JOINT LeftHandMiddle1
									{
										OFFSET 14.26970 0.00000 -0.09147
										CHANNELS 3 Zrotation Xrotation Yrotation
										JOINT LeftHandMiddle2
										{
											OFFSET 6.17440 0.00000 0.00000
											CHANNELS 3 Zrotation Xrotation Yrotation
											JOINT LeftHandMiddle3
											{
												OFFSET 3.56744 0.00000 0.00000
												CHANNELS 3 Zrotation Xrotation Yrotation
												End site
												{
													OFFSET 0.00000 0.00000 0.00000
												}
											}
										}
									}
									JOINT LeftHandRing1
									{
										OFFSET 12.69180 0.00000 -3.06433
										CHANNELS 3 Zrotation Xrotation Yrotation
										JOINT LeftHandRing2
										{
											OFFSET 5.62556 0.00000 0.00000
											CHANNELS 3 Zrotation Xrotation Yrotation
											JOINT LeftHandRing3
											{
												OFFSET 3.56744 0.00000 0.00000
												CHANNELS 3 Zrotation Xrotation Yrotation
												End site
												{
													OFFSET 0.00000 0.00000 0.00000
												}
											}
										}
									}
									JOINT LeftHandPinky1
									{
										OFFSET 11.11390 0.00000 -6.03719
										CHANNELS 3 Zrotation Xrotation Yrotation
										JOINT LeftHandPinky2
										{
											OFFSET 4.52789 0.00000 0.00000
											CHANNELS 3 Zrotation Xrotation Yrotation
											JOINT LeftHandPinky3
											{
												OFFSET 2.46976 0.00000 0.00000
												CHANNELS 3 Zrotation Xrotation Yrotation
												End site
												{
													OFFSET 0.00000 0.00000 0.00000
												}
											}
										}
									}
								}
							}
						}
					}
					JOINT pCube4
					{
						OFFSET 0.00000 10.91090 1.10792
						CHANNELS 3 Zrotation Xrotation Yrotation
						End site
						{
							OFFSET 0.00000 0.00000 0.00000
						}
					}
				}
			}
		}
	}
	JOINT RightUpLeg
	{
		OFFSET -9.98441 0.00000 0.00000
		CHANNELS 3 Zrotation Xrotation Yrotation
		JOINT RightLeg
		{
			OFFSET 0.00000 -42.11790 0.00000
			CHANNELS 3 Zrotation Xrotation Yrotation
			JOINT RightFoot
			{
				OFFSET 0.00000 -45.00020 -0.00001
				CHANNELS 3 Zrotation Xrotation Yrotation
				JOINT RightForeFoot
				{
					OFFSET 0.00000 -3.74820 0.00000
					CHANNELS 3 Zrotation Xrotation Yrotation
					JOINT RightToeBase
					{
						OFFSET 0.00000 0.06325 14.43120
						CHANNELS 3 Zrotation Xrotation Yrotation
						End site
						{
							OFFSET 0.00000 0.00000 0.00000
						}
					}
				}
			}
		}
	}
	JOINT LeftUpLeg
	{
		OFFSET 9.98441 0.00000 0.00000
		CHANNELS 3 Zrotation Xrotation Yrotation
		JOINT LeftLeg
		{
			OFFSET 0.00000 -42.11800 0.00000
			CHANNELS 3 Zrotation Xrotation Yrotation
			JOINT LeftFoot
			{
				OFFSET 0.00000 -45.00070 0.00000
				CHANNELS 3 Zrotation Xrotation Yrotation
				JOINT LeftForeFoot
				{
					OFFSET 0.00000 -3.74824 0.00000
					CHANNELS 3 Zrotation Xrotation Yrotation
					JOINT LeftToeBase
					{
						OFFSET 0.00000 0.06325 14.43110
						CHANNELS 3 Zrotation Xrotation Yrotation
						End site
						{
							OFFSET 0.00000 0.00000 0.00000
						}
					}
				}
			}
		}
	}
}
MOTION
Frames: 4
Frame Time: 0.050000
-0.03906075786953947 0.021899267303444304 0.015197159266086111 0.031197241921074412 0.011176366616715956 0.00938720601615213 -3.0410971603007786 0.5890644700603236 -0.6456488960150367 -1.0120365465614982 3.742250039716485 0.38628842469996805 -1.3691511844240822 -2.1634924774604354 0.08191569892597952 0.02652177786663388 0.31652298109786475 -0.7009439069458003 0.8269232095378387 14.086162662276816 -1.5702765845291924 0.26036217602610273 0.38329022354862285 -6.428599302094451 0.8698459728877372 -14.563710376863861 -0.5284059380108128 -7.4661075082406025 2.459237293244907 -13.261124654180486 75.12799789731406 10.538578525015414 31.560076414329117 26.842285782443074 5.679798382968604 76.85806254970078 18.108488037939466 -0.28490654844852825 -1.5060110860095028 4.558436370311029 -0.1347754866510254 -1.5891379431510628 -0.03267801036781734 -0.003062600473237775 -56.23346331962536 0.02612758730825341 -0.03522007086451004 -56.27276012325695 -38.76636105030073 0.04085565487991079 -0.01795878823669019 0.03928613849727971 -0.03766311133761552 0.04407721328312073 -0.032117821328837275 -0.030327293959667774 0.018145387470267893 -36.73443207844545 0.019122540979472788 -0.015915051269150465 -0.006435093044175359 -0.01767080507186591 0.026118342793940368 -0.019616066466781747 -0.010679163718097365 0.002352222301125301 -19.76863778070785 -0.03276251073037396 -0.028542727311054436 0.00033814023295603766 -0.03683738906929419 -0.00315042002108336 0.019212817252757024 -0.013396566936411546 0.017460260294716815 24.079808595875143 -0.010836642951897898 -0.00992590212744074 28.909396605005927 -0.01953434448815867 0.015249834243516783 28.904175848334226 0.022307274684032603 -0.017606627339881595 5.852939198473992 1.3584072714096518 11.987284787128855 -67.75964215485835 24.73579709779549 -12.650912943971424 -15.136952707084884 -1.1536972573639206 -69.71172983138668 -8.851739054008188 3.8842554712596815 -1.7755956451977293 -0.5211165565059072 0.08873393010003243 -8.137460972416129 -0.028117317473703975 -0.028969926257383493 44.536031500160696 -0.0018388503362230726 -0.019041745200956882 44.58395817922458 12.473568728759405 0.0166220865094173 -0.024674423664092702 -0.0248044000638653 0.0019470421600174825 -0.03090147919333698 -0.005518745383203657 0.010739185534006998 0.0001821760785038044 11.07736923548656 0.031091395961716325 -0.02324656852446837 0.010963427572598196 -0.015654272079324832 -0.012942302531346265 -0.01885452030673249 0.0347408362378813 -0.047219089901042725 4.751378819646757 -0.0006487585702112291 0.033012294581082985 -0.03661949121810106 -0.025531478899025208 0.02743905002355332 0.02764258650536961 0.027579877268591128 -0.009302726972241318 -5.557361758075764 -0.023992223697717887 -0.00997243292449678 -6.7087535859011345 -0.016583769820488713 -0.018362648378435358 -6.7359353261027275 -0.025296251058189983 0.021609051239605395 -0.000976935755311682 -0.027548872035690588 0.031433446995517755 8.05805205814181 3.447355868863682 -19.197900663156688 -0.017000494048172988 10.371505093355736 -0.002972200602787828 -5.5968595202644185 -15.698428922926366 3.1857110788866807 0.005849910509630013 -0.01995921743499993 0.001198279694238771 0.017706326798505666 4.673223132214355 -0.03182220177849595 12.440658955139565 -8.198601037200607 6.914865115855204 0.020446738806619034 46.363848118005556 0.048634077129407205 -4.335273027688367 -14.715831750557474 -3.81705032947452 -0.015683743333813543 0.04184433970281621 -0.019949529891223314 0.012626712045421403 -10.769457248236474 -0.00010986927508422724 
-0.021035538052970457 0.0033740144298451784 0.041824821362649894 -0.009109813578510505 -0.02904953220576284 -0.026466962483936457 -2.8903950132477 0.4253322330817011 -0.7298240227913991 -0.9601359558518433 3.7516224076668236 0.3542110488780824 -1.3643985558337737 -2.1925708831179525 -0.048140685748985064 0.10677535744548614 0.19512048252296207 -0.7125874654837883 0.7691654767057573 14.059535899004768 -1.8411157179826596 0.21392121091569802 0.38427756607519675 -6.928326651939681 0.9697922150190051 -14.494767568675474 -0.5794316589309206 -7.375863861191317 2.4007512864662055 -13.201443238715433 74.55610461554261 9.287279520113866 31.275714437873578 32.23709836142295 5.885374212257085 78.73018132836602 19.004497537793224 -0.2914544315243783 -1.8175455891473815 4.52918200975181 -0.09823073848203322 -1.600105251997101 -0.04735466381128431 0.002541809981454078 -56.20351301847637 0.03002329715635577 -0.04543740502425168 -56.208757982080385 -38.775815764939466 -0.002856120894136373 -0.007258901175160759 -0.01096964790250042 0.006396506429255457 0.025637209284710385 0.010201844121883734 0.031658308689594586 0.04940622264611914 -36.72917528969566 0.022804715771575355 -0.01632760299796434 -0.037731559521059 0.012817892585435631 -0.016678467263746145 0.022478020741228094 0.016224284634126798 0.03848010125234173 -19.78732672007176 0.035943471757993166 0.01763109389070444 0.0007378237385592559 0.023054154611322077 0.029928061930510185 0.021093356528186103 0.005994890799989284 0.013465522362525486 24.03580392703809 0.02240790203875421 -0.04576473791780586 28.86248590880942 -0.02935138450264664 0.008181374079386518 28.840509530989337 0.031167448484307646 0.01251945575453312 6.152677125109262 1.4413959589503949 11.999274023764878 -67.41476051068528 23.008086749210737 -13.922984734230296 -20.91742971954414 2.393798662427132 -74.31185977638499 -9.331085545106514 3.8926945988463837 -2.0022924194243177 -0.43288302750669627 0.10865423504094768 -8.09280977142611 0.009694491937333608 -0.021648304665819965 44.553941016839616 0.0038844584989319374 -0.0025254931917909774 44.58925383351719 12.481454671255324 0.01856883371934405 0.025232415196240983 0.024195134369054194 0.037679239887380256 -0.028034725341297088 -0.011301130883983171 -0.018652518042820965 -0.016476569808435537 11.154782989155207 -0.03943010444964543 0.009624000876535794 -0.006151208390088737 -0.024583727595277775 -0.009567734563635721 0.026694130502784737 2.469580218333098e-05 -0.001868346864799528 4.752528086779312 -0.03210681595717254 -0.015392991409012104 -0.03119837851927308 0.008150264273677552 -0.031336932463491604 0.02801671293600392 0.047114521749162176 0.012988827391158149 -5.589787053235083 0.025772501822905962 -0.040071131692780176 -6.683381954333033 -0.029138033775542575 -0.03017009817933705 -6.734346896998103 0.021662522625987238 -0.013399965795183304 -0.025617504262349017 -0.023955777687231002 -0.03680379750368624 7.997631590332596 3.4709385856546904 -19.245727782955267 0.01512107324025823 10.429162243442239 0.0051406057437466245 -5.619005111606327 -15.689878219383868 3.1769580196151384 -0.01689818363059248 -0.007620052447195244 -0.031320301336879186 -0.04251914917746827 4.730146508058264 -0.006557664499335401 12.461975177454265 -8.250389826839747 6.869802780078082 0.036132805614076224 46.365511476655904 -0.005684397486182162 -4.277134716476281 -14.708796434718574 -3.817027294314679 0.017591227711429062 0.01540370997887222 0.026529409566993446 -0.04122464876893099 -10.755222170056529 -0.04256746722945111 
0.028571230169154728 0.020657363482204694 -0.02716136316193748 -0.023801769174246562 -0.025793427167026563 0.000566852853466354 -2.8250630940695003 0.2939360360182853 -0.7406758965802486 -0.8583867881981389 3.7423545632873303 0.41573928863654674 -1.3844808464494043 -2.2448444052184455 -0.1590054734719511 0.150668357693846 0.16542905021780546 -0.7655865842971005 0.8144615234940523 14.123088387928497 -1.9842474559700998 0.23007135081855964 0.37433456055291936 -7.256983541916082 0.9760574676291153 -14.418716328222358 -0.5724475653817589 -7.50032746368984 2.3948564055434756 -13.227869536511989 74.00271583051743 6.749146644565734 31.65490719172704 39.28656454277648 5.52830386318338 82.75554018574111 19.80662668601323 -0.3360703345787345 -1.980825763185972 4.488804828506425 -0.13989376819342564 -1.551224912963189 0.04671973250539092 -0.01325023425778477 -56.196660784959526 -0.03883567270642066 -0.04223910306981621 -56.26070251619322 -38.766501434725484 -0.020358118070808572 -0.018535108752958926 -0.04595448716128881 -0.03572496794473797 -0.0012195109468962656 -0.007771951888449495 0.03295730202713512 -0.034408522182613366 -36.71503202323701 0.019038167307588134 -0.014617357717818344 -0.01149411601345414 0.034626304245612576 0.0025221912509672305 -0.011192116853989499 -0.013540382177676542 -0.0038982669459081726 -19.781743799569107 0.03180905163107363 0.04568816182329051 -0.04988639407929095 0.019459869682848834 -0.02039716454293952 -0.001032992854471883 -0.018398621379506815 0.006454900300705678 24.05349103687745 0.01066352936037692 -0.0007589247978253941 28.884398831234254 -0.021543144860902957 0.024860108857598047 28.820202056615237 0.04909350858352346 0.013922599285951107 6.46436679664217 1.4972909819744442 11.974926405268906 -67.16812662588227 21.175362052407973 -15.264187328817787 -29.060403471420504 6.058958186695199 -81.06278467741157 -10.003685913346668 3.921021989631578 -2.3591930571721025 -0.4600986914146074 0.07750943631361389 -8.106058512435549 -0.0010417462129980884 -0.008972085503166085 44.54768887627522 0.015231321817290991 -0.02092192496234662 44.56387983997737 12.462878931045708 0.018230282994090633 -0.029049481583656764 -0.023397247721305768 -0.02480279660538568 -0.006421126000553497 -0.018207669736289046 -0.02099325049184349 -0.04744639091755496 11.155657212334253 -0.022384191879605955 0.01557248874491467 -0.042756387194631824 -0.014998514418177107 -0.005208981046301097 -0.041330545523340534 0.009786052765023423 -0.005141172059542453 4.79596611231386 0.021049718887846895 0.01738013816452584 -0.023407034161945776 -0.012751144451174768 -0.0016296759864311236 0.01747478521648415 -0.023578109655199117 0.04537854970623609 -5.619283619625411 0.02472989857499649 -0.03595729936586604 -6.7260754270142975 0.0022513922071802014 -0.003817289240334103 -6.716938459080903 -0.004441160660690298 -0.03389166648266787 0.002043379263587474 -0.023052581663913118 0.00820625054629119 8.0502595816781 3.5028558612818252 -19.188149707306117 -0.009238632821242645 10.44233985919634 -0.02017903528823437 -5.586717418775552 -15.690694633875523 3.23830561954081 -0.0041175000157855825 -0.02727345636658446 -0.04375706653694685 0.02197634003571493 4.706457541291359 0.04760246819847718 12.448420164243835 -8.220081460808759 6.873182897939975 0.02975510200066231 46.41957682830212 0.04437278539569088 -4.325966495978108 -14.7330079520003 -3.8103190332521195 0.021372625444029295 0.019846685872833166 -0.040938340216812946 0.010785212178854498 -10.73431828301916 0.01038113947595952 
0.02936463844531852 -0.010486977650271954 0.011704865951897344 0.0021642873467724567 -0.029936040094268975 -0.031860777598436266 -2.714993133384169 0.0788624007925817 -0.764673009268252 -0.8953725578780103 3.6601186642655805 0.3975089751038359 -1.3901176346932054 -2.2507582997139934 -0.18683982428706225 0.1639249614699218 0.05042656659514631 -0.7577715761012483 0.7835178956768787 14.213804481314265 -2.1695613640311806 0.22219709529148007 0.46609978014914416 -7.367414386144005 0.9981213751728786 -14.405243530983226 -0.5720602933082813 -7.797215733815384 2.485945987245346 -13.323143788825758 73.09577950632554 3.3577813354318358 32.45006149119555 46.48220838518442 4.3152959610272985 87.4025948825371 20.26140876511087 -0.35407072328603817 -2.1350383348957167 4.5083906460610095 -0.12994670602373573 -1.5980154140592955 -0.016071131080903404 0.036686626015972744 -56.2680626649449 -0.024063569503125336 -0.0002620376837171899 -56.28107725768476 -38.7223428159251 -0.018303382861523908 0.0341482852860459 -0.003972835791378328 0.006462496419633824 0.04871214531613243 -0.01448362313188743 0.012588158223222573 0.03448342143958858 -36.71007547696798 -0.027777034907136396 0.002916597653338472 -0.038178911099526036 -0.03947741541460504 -0.04218279017859781 0.02629516147361339 0.014698761078474825 -0.03184727387343732 -19.741710945739655 0.003345352455800379 -0.0060031830204277095 -0.035107876811605716 -0.004237911363150919 0.012672747852728808 0.027093504887189767 -0.03217879878807035 -0.048063805097934495 24.085923232072595 -0.0470661569722093 0.03039514228226959 28.894227007885583 -0.000801205399109604 0.006983130642735016 28.838834971886623 0.03902758786180559 0.005583122376720099 6.82496831757973 1.6143562623732417 11.945919015017301 -67.05292915332713 19.72712949195451 -16.461424058887626 -37.85621956829283 8.449473514113546 -88.58149960867476 -10.535470296394532 3.943619942353135 -2.6343642730587726 -0.43900042991160115 0.06258845500227286 -8.100196531384352 -0.03676714468956211 -0.04202262410930829 44.5615895871175 0.03707358417899051 0.028700798893698476 44.52877543434603 12.43548596659983 -0.030703925778107082 0.02056641609211931 0.034439183789058206 0.01467164135390923 0.04642808080541802 -0.003813293043647875 -0.031417401291980326 0.04901038550833054 11.120545291017002 0.04293798030735535 0.011732750630748273 -0.03646741339701647 0.042106081861636196 -0.018938903460410102 0.016810580850321992 0.0031453548029713105 0.0044789340618201275 4.782279029382631 -0.024911033630478276 -0.010686859884661185 -0.01347383478219059 -0.011047634870433067 0.009694806270694353 -0.01710148682215876 -0.045518697473487774 0.03447714919164827 -5.57885833791425 -0.02163592045843283 0.04109246832179062 -6.681461058028311 0.014029338128661388 0.02849975110054661 -6.745634218040867 -0.014100680340176764 0.026051647583569964 0.018726088146140834 -3.528137284565863e-05 0.007174475846633896 8.093866124265286 3.5034975020935186 -19.20546193645446 0.037949875805182894 10.383652267161677 -0.00949132975756525 -5.6005298473733856 -15.673470405996168 3.180044639651634 0.02312254353856967 -0.04202852281928114 0.004377815138780245 0.025221907443987654 4.713854378593642 -0.022303183397657963 12.438008740599628 -8.243168776898306 6.890672166143765 0.0005632876412565486 46.353092109262235 0.021721697368434444 -4.361097355619915 -14.742280578503749 -3.8015943058056423 0.04682267731558087 0.010153868047906234 -0.04862527371408354 -0.003916340141890552 -10.748460006006985 0.04523026276098968 
